<svg xmlns="http://www.w3.org/2000/svg" class="svg-logo" width="2400" height="2400" viewBox="0 0 630 430" style="height: auto;"><rect width="630" height="630" y="-100" rx="0" ry="0" fill="transparent" fill-opacity="0"></rect><g data-element="wrapper" transform="translate(31.520324707028195 -15.350019073488795) scale(0.9000000000000097)"><g data-element="container" transform="translate(205.28681506849315 105.28681506849315) scale(0.3657106164383562)"><g ><path id="fill_x5F_1_15_" d="M145.497,145.497C100.713,190.279,69.643,244.177,55.933,300
	c13.711,55.823,44.78,109.721,89.564,154.503s98.681,75.852,154.504,89.564c55.823-13.711,109.721-44.781,154.503-89.564l0,0
	c44.782-44.782,75.852-98.68,89.563-154.503c-13.711-55.823-44.78-109.721-89.563-154.503l0,0
	C409.721,100.714,355.823,69.644,300,55.933C244.177,69.644,190.279,100.714,145.497,145.497z" fill="transparent" fill-opacity="0"></path>
<path id="frame_x5F_1_11_" d="M300,0C219.867,0,144.53,31.205,87.868,87.868C31.205,144.53,0,219.867,0,300
	s31.205,155.47,87.868,212.132C144.53,568.795,219.867,600,300,600s155.47-31.205,212.132-87.868
	C568.795,455.47,600,380.133,600,300s-31.205-155.47-87.868-212.132C455.47,31.205,380.133,0,300,0z M300,19.676
	c39.951,0,79.896,8.472,116.896,25.39c-27.141-6.93-56.733-8.686-87.778-4.93c-9.738,1.179-19.454,2.9-29.118,5.109
	c-9.664-2.208-19.38-3.929-29.118-5.109c-31.041-3.758-60.631-2.002-87.771,4.927C220.108,28.147,260.052,19.676,300,19.676z
	 M448.561,151.439L448.561,151.439c43.061,43.06,72.935,94.885,86.119,148.561c-13.184,53.676-43.058,105.501-86.118,148.561l0,0
	c-43.06,43.06-94.885,72.935-148.561,86.119c-53.676-13.184-105.501-43.059-148.562-86.119
	C108.378,405.501,78.503,353.676,65.32,300c13.184-53.676,43.058-105.501,86.119-148.561c43.06-43.06,94.885-72.935,148.561-86.119
	C353.676,78.504,405.501,108.379,448.561,151.439z M108.598,108.598c33.255-33.255,78.958-50.851,130.802-50.851
	c5.874,0,11.828,0.228,17.851,0.683c-43.275,16.882-84.293,43.849-119.633,79.189c-35.337,35.338-62.303,76.352-79.185,119.623
	C53.97,198.07,71.577,145.618,108.598,108.598z M40.136,270.882c1.179,9.738,2.901,19.454,5.109,29.118
	c-2.208,9.664-3.929,19.381-5.109,29.118c-3.792,31.317-1.968,61.153,5.116,88.489C28.425,381.214,19.544,341.292,19.544,300
	s8.881-81.214,25.707-117.608C38.168,209.728,36.344,239.565,40.136,270.882z M58.434,342.758
	c16.882,43.271,43.847,84.285,79.185,119.623c35.341,35.34,76.359,62.307,119.634,79.189c-6.023,0.455-11.975,0.682-17.852,0.682
	c-51.84-0.003-97.55-17.598-130.802-50.851C71.577,454.382,53.97,401.93,58.434,342.758z M183.195,554.974
	c17.748,4.523,36.545,6.829,56.111,6.829c10.322,0,20.868-0.643,31.576-1.939c9.738-1.179,19.454-2.9,29.118-5.109
	c9.664,2.208,19.38,3.93,29.118,5.109c10.712,1.297,21.25,1.939,31.576,1.939c19.568,0,38.367-2.307,56.118-6.832
	C342.862,588.756,257.145,588.757,183.195,554.974z M491.402,491.402c-37.02,37.02-89.47,54.629-148.643,50.164
	c43.271-16.882,84.285-43.848,119.623-79.185c35.338-35.338,62.303-76.352,79.185-119.623
	C546.03,401.93,528.423,454.382,491.402,491.402z M559.864,329.118c-1.179-9.738-2.901-19.454-5.109-29.118
	c2.208-9.664,3.929-19.381,5.109-29.118c3.792-31.317,1.968-61.153-5.116-88.49c16.827,36.394,25.707,76.316,25.707,117.608
	s-8.881,81.214-25.707,117.608C561.832,390.272,563.656,360.435,559.864,329.118z M541.566,257.242
	c-16.882-43.271-43.847-84.285-79.185-119.623c-35.341-35.34-76.359-62.307-119.634-79.189c6.023-0.455,11.975-0.682,17.852-0.682
	c51.84,0,97.55,17.598,130.802,50.851C528.423,145.618,546.03,198.07,541.566,257.242z" fill="#000000" fill-opacity="1"></path></g></g><g ><path d="M291.19 200.41Q291.19 204.71 289.15 208.17Q287.12 211.62 283.13 213.54L283.13 213.54Q288.27 215.23 291.15 218.69Q294.03 222.15 294.03 226.37L294.03 226.37Q294.03 233.36 289.27 237.43Q284.51 241.50 274.06 241.50L274.06 241.50L252.64 241.50L251.71 238.89L253.48 238.43Q256.40 237.58 257.40 236.20Q258.40 234.82 258.40 231.29L258.40 231.29L258.40 193.35Q258.40 192.35 258.01 191.93Q257.63 191.50 256.71 191.50L256.71 191.50L252.25 191.50L251.33 188.66Q254.63 187.36 260.01 186.32Q265.38 185.28 270.38 185.28L270.38 185.28Q280.90 185.28 286.04 189.51Q291.19 193.73 291.19 200.41L291.19 200.41ZM266.00 227.45Q266.00 233.74 268.53 235.62Q271.07 237.51 274.52 237.51L274.52 237.51Q279.90 237.51 282.97 234.32Q286.04 231.13 286.04 225.99L286.04 225.99Q286.04 223.07 284.55 220.65Q283.05 218.23 280.28 216.77Q277.52 215.31 273.83 215.31L273.83 215.31Q272.53 215.31 271.11 215.00Q269.69 214.70 268.84 214.31L268.84 214.31Q267.69 213.78 267.69 212.62L267.69 212.62Q267.69 211.24 268.76 211.24L268.76 211.24Q269.07 211.24 270.03 211.51Q270.99 211.78 272.60 211.78L272.60 211.78Q277.83 211.78 280.71 208.71Q283.59 205.63 283.59 200.57L283.59 200.57Q283.59 195.73 280.32 192.66Q277.06 189.58 271.14 189.58L271.14 189.58Q266.00 189.58 266.00 193.12L266.00 193.12L266.00 227.45ZM360.39 241.50L351.63 241.50L340.34 208.02L329.28 241.50L320.53 241.50L305.55 196.96Q304.40 193.42 302.94 191.58Q301.48 189.74 298.64 187.59L298.64 187.59L299.64 186.36L316.92 186.36L317.84 188.97L316.07 189.43Q314.23 189.89 313.42 190.66Q312.62 191.43 312.62 192.81L312.62 192.81Q312.62 194.04 313.46 196.57L313.46 196.57L325.98 235.13L337.42 199.41L336.65 196.96Q335.50 193.42 334.04 191.58Q332.58 189.74 329.74 187.59L329.74 187.59L330.74 186.36L348.02 186.36L348.94 188.97L347.18 189.43Q345.33 189.89 344.53 190.66Q343.72 191.43 343.72 192.81L343.72 192.81Q343.72 194.04 344.57 196.57L344.57 196.57L357.08 235.13L367.84 201.72Q369.29 197.11 369.29 194.58L369.29 194.58Q369.14 190.35 365.84 189.43L365.84 189.43L364.07 188.97L364.99 186.36L379.59 186.36L380.58 187.59L379.43 188.97Q376.59 192.35 375.21 196.65L375.21 196.65L360.39 241.50Z" data-element="initials" data-text-path="" data-text="BW" data-font-family="Gabriela" fill="#000000" fill-opacity="1"></path><path d="M162.07 353.47Q162.07 357.06 160.38 359.94Q158.68 362.82 155.35 364.42L155.35 364.42Q159.64 365.83 162.04 368.71Q164.44 371.59 164.44 375.11L164.44 375.11Q164.44 380.93 160.47 384.32Q156.50 387.71 147.80 387.71L147.80 387.71L129.94 387.71L129.18 385.54L130.65 385.15Q133.08 384.45 133.91 383.30Q134.74 382.15 134.74 379.20L134.74 379.20L134.74 347.59Q134.74 346.75 134.42 346.40Q134.10 346.05 133.34 346.05L133.34 346.05L129.62 346.05L128.86 343.68Q131.61 342.59 136.09 341.73Q140.57 340.87 144.73 340.87L144.73 340.87Q153.50 340.87 157.78 344.39Q162.07 347.91 162.07 353.47L162.07 353.47ZM141.08 376.00Q141.08 381.25 143.19 382.82Q145.30 384.39 148.18 384.39L148.18 384.39Q152.66 384.39 155.22 381.73Q157.78 379.07 157.78 374.79L157.78 374.79Q157.78 372.35 156.54 370.34Q155.29 368.32 152.98 367.11Q150.68 365.89 147.61 365.89L147.61 365.89Q146.52 365.89 145.34 365.63Q144.15 365.38 143.45 365.06L143.45 365.06Q142.49 364.61 142.49 363.65L142.49 363.65Q142.49 362.50 143.38 362.50L143.38 362.50Q143.64 362.50 144.44 362.72Q145.24 362.95 146.58 362.95L146.58 362.95Q150.94 362.95 153.34 360.39Q155.74 357.83 155.74 353.60L155.74 353.60Q155.74 349.57 153.02 347.01Q150.30 344.45 145.37 344.45L145.37 344.45Q141.08 344.45 141.08 347.39L141.08 347.39L141.08 376.00ZM181.02 364.61L181.40 364.61Q182.49 360.32 184.76 357.70Q187.03 355.07 189.72 355.07L189.72 355.07Q192.41 355.07 194.17 356.83Q195.93 358.59 195.93 361.60L195.93 361.60Q195.93 364.03 194.14 365.70Q192.34 367.36 189.66 367.36L189.66 367.36Q188.44 367.36 188.44 366.66L188.44 366.66Q188.44 366.47 188.98 365.70Q189.53 364.93 189.88 364.10Q190.23 363.27 190.23 362.24L190.23 362.24Q190.23 361.09 189.62 360.42Q189.02 359.75 188.12 359.75L188.12 359.75Q186.58 359.75 184.95 361.57Q183.32 363.39 182.17 367.46Q181.02 371.52 181.02 377.73L181.02 377.73Q181.02 380.61 181.46 382.37Q181.91 384.13 183.06 385.73L183.06 385.73L183.83 386.75L183.06 387.71L171.86 387.71L171.16 385.73L172.50 385.41Q174.10 385.03 174.65 384.03Q175.19 383.04 175.19 380.61L175.19 380.61L175.19 362.63Q175.19 361.86 174.90 361.54Q174.62 361.22 173.91 361.22L173.91 361.22L171.10 361.22L170.52 359.55Q172.38 357.89 174.78 356.80Q177.18 355.71 178.97 355.71L178.97 355.71Q179.86 355.71 180.44 356.29Q181.02 356.87 181.02 357.76L181.02 357.76L181.02 364.61ZM198.81 371.84Q198.81 366.72 200.70 362.95Q202.58 359.17 206.14 357.12Q209.69 355.07 214.42 355.07L214.42 355.07Q219.16 355.07 222.68 357.12Q226.20 359.17 228.12 362.95Q230.04 366.72 230.04 371.84L230.04 371.84Q230.04 376.90 228.12 380.71Q226.20 384.51 222.68 386.56Q219.16 388.61 214.42 388.61L214.42 388.61Q209.69 388.61 206.14 386.56Q202.58 384.51 200.70 380.71Q198.81 376.90 198.81 371.84L198.81 371.84ZM223.32 372.03Q223.32 369.03 222.49 365.89Q221.66 362.75 219.70 360.58Q217.75 358.40 214.62 358.40L214.62 358.40Q211.93 358.40 209.85 360.10Q207.77 361.79 206.62 364.87Q205.46 367.94 205.46 371.91L205.46 371.91Q205.46 377.99 207.83 381.57Q210.20 385.15 214.23 385.15L214.23 385.15Q216.86 385.15 218.94 383.52Q221.02 381.89 222.17 378.91Q223.32 375.94 223.32 372.03L223.32 372.03ZM250.78 384.45Q252.82 384.45 254.42 382.24Q256.02 380.03 256.89 376.42Q257.75 372.80 257.75 368.83L257.75 368.83Q257.75 365.76 257.05 362.88Q256.34 360.00 254.94 357.76L254.94 357.76L254.30 356.74L255.06 355.91L262.55 355.07Q262.87 359.04 262.87 361.86L262.87 361.86Q262.87 364.80 262.55 368.13L262.55 368.13L263.90 377.09Q264.47 381.06 265.62 382.75Q266.78 384.45 269.02 384.45L269.02 384.45Q271.06 384.45 272.66 382.24Q274.26 380.03 275.13 376.42Q275.99 372.80 275.99 368.83L275.99 368.83Q275.99 365.76 275.29 362.88Q274.58 360.00 273.18 357.76L273.18 357.76L272.54 356.74L273.30 355.91L280.79 355.07Q281.11 359.04 281.11 361.86L281.11 361.86Q281.11 370.37 279.38 376.42Q277.66 382.47 274.78 385.54Q271.90 388.61 268.57 388.61L268.57 388.61Q264.86 388.61 262.78 386.79Q260.70 384.96 259.54 380.55L259.54 380.55Q257.82 384.51 255.35 386.56Q252.89 388.61 250.07 388.61L250.07 388.61Q246.74 388.61 244.73 387.36Q242.71 386.11 241.50 383.33Q240.28 380.55 239.58 375.55L239.58 375.55L237.59 361.99Q237.46 361.15 237.21 360.87Q236.95 360.58 236.31 360.58L236.31 360.58L233.50 360.58L232.92 358.91Q234.58 357.25 236.89 356.16Q239.19 355.07 240.98 355.07L240.98 355.07Q242.71 355.07 243.03 357.12L243.03 357.12L245.91 377.09Q246.49 381.06 247.58 382.75Q248.66 384.45 250.78 384.45L250.78 384.45ZM300.38 385.47Q303.00 385.47 304.70 384.03Q306.39 382.59 306.39 380.29L306.39 380.29Q306.39 378.24 304.63 376.96Q302.87 375.68 299.42 374.21L299.42 374.21Q296.28 372.93 294.20 371.71Q292.12 370.50 290.65 368.55Q289.18 366.59 289.18 363.71L289.18 363.71Q289.18 359.87 292.47 357.47Q295.77 355.07 300.82 355.07L300.82 355.07Q305.37 355.07 308.38 356.87Q311.38 358.66 311.38 361.67L311.38 361.67Q311.38 364.10 309.88 365.67Q308.38 367.23 306.01 367.23L306.01 367.23Q304.66 367.23 304.66 366.40L304.66 366.40Q304.66 366.15 305.14 365.09Q305.62 364.03 305.62 362.82L305.62 362.82Q305.62 360.45 304.02 359.30Q302.42 358.15 300.38 358.15L300.38 358.15Q297.75 358.15 296.25 359.46Q294.74 360.77 294.74 362.82L294.74 362.82Q294.74 365.19 296.63 366.63Q298.52 368.07 302.23 369.60L302.23 369.60Q305.30 370.88 307.35 372.00Q309.40 373.12 310.81 374.85Q312.22 376.58 312.22 379.01L312.22 379.01Q312.22 383.36 308.76 385.99Q305.30 388.61 299.54 388.61L299.54 388.61Q294.68 388.61 291.54 386.43Q288.41 384.26 288.41 380.61L288.41 380.61Q288.41 378.43 289.88 377.03Q291.35 375.62 293.72 375.62L293.72 375.62Q295.06 375.62 295.06 376.39L295.06 376.39Q295.06 376.58 294.68 377.57Q294.30 378.56 294.30 379.97L294.30 379.97Q294.30 382.66 296.18 384.07Q298.07 385.47 300.38 385.47L300.38 385.47ZM346.01 382.91Q343.64 385.67 340.38 387.14Q337.11 388.61 333.34 388.61L333.34 388.61Q328.92 388.61 325.59 386.56Q322.26 384.51 320.44 380.80Q318.62 377.09 318.62 372.23L318.62 372.23Q318.62 367.11 320.66 363.23Q322.71 359.36 326.46 357.22Q330.20 355.07 335.19 355.07L335.19 355.07Q338.71 355.07 341.18 356.39Q343.64 357.70 344.86 359.84Q346.07 361.99 346.07 364.48L346.07 364.48Q346.07 367.17 344.63 369.67Q343.19 372.16 340.44 373.73Q337.69 375.30 333.85 375.30L333.85 375.30Q331.80 375.30 329.30 374.53Q326.81 373.76 326.81 372.29L326.81 372.29Q326.81 371.78 327.10 371.33Q327.38 370.88 327.77 370.88L327.77 370.88Q327.96 370.88 329.05 371.30Q330.14 371.71 331.86 371.71L331.86 371.71Q335.70 371.71 337.85 369.54Q339.99 367.36 339.99 364.42L339.99 364.42Q339.99 361.92 338.39 360.10Q336.79 358.27 333.91 358.27L333.91 358.27Q329.82 358.27 327.51 361.89Q325.21 365.51 325.21 372.23L325.21 372.23Q325.21 377.92 327.64 381.15Q330.07 384.39 334.68 384.39L334.68 384.39Q340.31 384.39 344.02 380.74L344.02 380.74Q344.28 380.48 344.60 380.48L344.60 380.48Q345.11 380.48 345.69 381.09Q346.26 381.70 346.26 382.34L346.26 382.34Q346.26 382.66 346.01 382.91L346.01 382.91ZM401.37 387.71L394.07 387.71L384.66 359.81L375.45 387.71L368.15 387.71L355.67 350.59Q354.71 347.65 353.50 346.11Q352.28 344.58 349.91 342.79L349.91 342.79L350.74 341.76L365.14 341.76L365.91 343.94L364.44 344.32Q362.90 344.71 362.23 345.35Q361.56 345.99 361.56 347.14L361.56 347.14Q361.56 348.16 362.26 350.27L362.26 350.27L372.70 382.40L382.23 352.64L381.59 350.59Q380.63 347.65 379.42 346.11Q378.20 344.58 375.83 342.79L375.83 342.79L376.66 341.76L391.06 341.76L391.83 343.94L390.36 344.32Q388.82 344.71 388.15 345.35Q387.48 345.99 387.48 347.14L387.48 347.14Q387.48 348.16 388.18 350.27L388.18 350.27L398.62 382.40L407.58 354.56Q408.79 350.72 408.79 348.61L408.79 348.61Q408.66 345.09 405.91 344.32L405.91 344.32L404.44 343.94L405.21 341.76L417.37 341.76L418.20 342.79L417.24 343.94Q414.87 346.75 413.72 350.34L413.72 350.34L401.37 387.71ZM425.05 345.60Q425.05 344.39 426.42 342.88Q427.80 341.38 428.95 341.38L428.95 341.38Q430.17 341.38 431.58 342.85Q432.98 344.32 432.98 345.60L432.98 345.60Q432.98 346.82 431.58 348.29Q430.17 349.76 428.95 349.76L428.95 349.76Q427.86 349.76 426.46 348.29Q425.05 346.82 425.05 345.60L425.05 345.60ZM431.83 382.08Q431.83 384.26 433.75 384.26L433.75 384.26Q435.35 384.26 436.95 382.91L436.95 382.91L438.17 384.58Q436.50 386.43 434.58 387.52Q432.66 388.61 431.00 388.61L431.00 388.61Q428.38 388.61 427.22 387.01Q426.07 385.41 426.07 381.83L426.07 381.83L426.07 361.99Q426.07 361.22 425.78 360.90Q425.50 360.58 424.79 360.58L424.79 360.58L421.98 360.58L421.40 358.91Q423.26 357.25 425.62 356.16Q427.99 355.07 429.85 355.07L429.85 355.07Q430.74 355.07 431.32 355.65Q431.90 356.23 431.90 357.12L431.90 357.12L431.83 382.08ZM449.11 384.00L459.16 384.00Q461.59 384.00 462.58 383.46Q463.58 382.91 463.96 381.31L463.96 381.31L464.73 377.92L466.71 378.63L466.71 388.48L465.94 389.25Q464.60 388.35 462.97 388.03Q461.34 387.71 458.33 387.71L458.33 387.71L441.94 387.71L441.24 385.73L459.22 359.62L449.62 359.62Q447.19 359.62 446.20 360.16Q445.21 360.71 444.82 362.31L444.82 362.31L444.06 365.70L442.07 364.99L442.07 355.14L442.84 354.37Q444.18 355.27 445.82 355.59Q447.45 355.91 450.46 355.91L450.46 355.91L466.39 355.91Q467.67 356.99 467.67 358.66L467.67 358.66L465.94 359.68L449.11 384.00ZM500.06 382.91Q497.69 385.67 494.42 387.14Q491.16 388.61 487.38 388.61L487.38 388.61Q482.97 388.61 479.64 386.56Q476.31 384.51 474.49 380.80Q472.66 377.09 472.66 372.23L472.66 372.23Q472.66 367.11 474.71 363.23Q476.76 359.36 480.50 357.22Q484.25 355.07 489.24 355.07L489.24 355.07Q492.76 355.07 495.22 356.39Q497.69 357.70 498.90 359.84Q500.12 361.99 500.12 364.48L500.12 364.48Q500.12 367.17 498.68 369.67Q497.24 372.16 494.49 373.73Q491.74 375.30 487.90 375.30L487.90 375.30Q485.85 375.30 483.35 374.53Q480.86 373.76 480.86 372.29L480.86 372.29Q480.86 371.78 481.14 371.33Q481.43 370.88 481.82 370.88L481.82 370.88Q482.01 370.88 483.10 371.30Q484.18 371.71 485.91 371.71L485.91 371.71Q489.75 371.71 491.90 369.54Q494.04 367.36 494.04 364.42L494.04 364.42Q494.04 361.92 492.44 360.10Q490.84 358.27 487.96 358.27L487.96 358.27Q483.86 358.27 481.56 361.89Q479.26 365.51 479.26 372.23L479.26 372.23Q479.26 377.92 481.69 381.15Q484.12 384.39 488.73 384.39L488.73 384.39Q494.36 384.39 498.07 380.74L498.07 380.74Q498.33 380.48 498.65 380.48L498.65 380.48Q499.16 380.48 499.74 381.09Q500.31 381.70 500.31 382.34L500.31 382.34Q500.31 382.66 500.06 382.91L500.06 382.91Z" data-element="company-name" data-text-path="" data-text="BrowseWize" data-font-family="Gabriela" fill="#000000" fill-opacity="1"></path></g></g></svg>